<svg width="32" height="32" viewBox="0 0 32 32" fill="none" xmlns="http://www.w3.org/2000/svg">
<rect width="32" height="32" rx="5" fill="#F802EC"/>
<path d="M11.5 11.25C11.9062 11.25 12.25 10.9375 12.25 10.5C12.25 10.0938 11.9062 9.75 11.5 9.75C11.0625 9.75 10.75 10.0938 10.75 10.5C10.75 10.9375 11.0625 11.25 11.5 11.25ZM14 10.5C14 11.5312 13.375 12.4062 12.5 12.8125V15.5625C13.0625 15.2188 13.75 15 14.5 15H17.5C18.5938 15 19.5 14.125 19.5 13V12.8125C18.5938 12.4062 18 11.5312 18 10.5C18 9.125 19.0938 8 20.5 8C21.875 8 23 9.125 23 10.5C23 11.5312 22.375 12.4062 21.5 12.8125V13C21.5 15.2188 19.6875 17 17.5 17H14.5C13.375 17 12.5 17.9062 12.5 19V19.2188C13.375 19.5938 14 20.5 14 21.5C14 22.9062 12.875 24 11.5 24C10.0938 24 9 22.9062 9 21.5C9 20.5 9.59375 19.5938 10.5 19.2188V19V12.8125C9.59375 12.4062 9 11.5312 9 10.5C9 9.125 10.0938 8 11.5 8C12.875 8 14 9.125 14 10.5ZM21.25 10.5C21.25 10.0938 20.9062 9.75 20.5 9.75C20.0625 9.75 19.75 10.0938 19.75 10.5C19.75 10.9375 20.0625 11.25 20.5 11.25C20.9062 11.25 21.25 10.9375 21.25 10.5ZM11.5 22.25C11.9062 22.25 12.25 21.9375 12.25 21.5C12.25 21.0938 11.9062 20.75 11.5 20.75C11.0625 20.75 10.75 21.0938 10.75 21.5C10.75 21.9375 11.0625 22.25 11.5 22.25Z" fill="#0E0D1A"/>
</svg>
